<svg width="43" height="43" viewBox="0 0 43 43" fill="none" xmlns="http://www.w3.org/2000/svg">
<path d="M35.5634 25.8758C34.6421 24.9165 33.5309 24.4037 32.3532 24.4037C31.185 24.4037 30.0643 24.907 29.105 25.8663L26.1038 28.858C25.8568 28.7251 25.6099 28.6016 25.3725 28.4781C25.0306 28.3072 24.7076 28.1457 24.4322 27.9747C21.6209 26.1892 19.0661 23.8623 16.6157 20.8516C15.4285 19.351 14.6307 18.0878 14.0514 16.8056C14.8302 16.0933 15.552 15.3525 16.2548 14.6402C16.5207 14.3742 16.7867 14.0988 17.0526 13.8329C19.0471 11.8384 19.0471 9.25506 17.0526 7.26057L14.4598 4.66774C14.1653 4.37331 13.8614 4.06939 13.5765 3.76547C13.0066 3.17662 12.4083 2.56878 11.791 1.99892C10.8697 1.08716 9.76798 0.602783 8.60928 0.602783C7.45058 0.602783 6.32986 1.08716 5.38011 1.99892C5.37061 2.00842 5.37061 2.00842 5.36111 2.01792L2.13194 5.27558C0.916255 6.49127 0.222933 7.97289 0.0709719 9.69195C-0.15697 12.4652 0.659821 15.0486 1.28666 16.7391C2.82526 20.8896 5.12367 24.7361 8.55229 28.858C12.7122 33.8252 17.7174 37.7477 23.435 40.5115C25.6194 41.5468 28.5352 42.7719 31.7928 42.9809C31.9923 42.9904 32.2012 42.9999 32.3912 42.9999C34.5851 42.9999 36.4276 42.2116 37.8713 40.6445C37.8808 40.6255 37.8997 40.616 37.9092 40.597C38.4031 39.9987 38.973 39.4573 39.5713 38.8779C39.9797 38.4885 40.3976 38.0802 40.806 37.6528C41.7463 36.6745 42.2401 35.5348 42.2401 34.3666C42.2401 33.1889 41.7368 32.0587 40.7775 31.1089L35.5634 25.8758ZM38.9635 35.8767C38.954 35.8767 38.954 35.8862 38.9635 35.8767C38.5931 36.2756 38.2132 36.6365 37.8048 37.0354C37.1874 37.6243 36.5606 38.2416 35.9717 38.9349C35.0125 39.9607 33.8823 40.445 32.4007 40.445C32.2582 40.445 32.1062 40.445 31.9638 40.4355C29.143 40.2551 26.5217 39.1534 24.5557 38.2131C19.1801 35.6108 14.4598 31.9162 10.5373 27.2339C7.29861 23.3304 5.13317 19.7214 3.69904 15.8464C2.81577 13.4815 2.49285 11.6389 2.63531 9.90089C2.73029 8.78968 3.15768 7.86842 3.94598 7.08012L7.18464 3.84145C7.65002 3.40456 8.1439 3.16712 8.62827 3.16712C9.22662 3.16712 9.71099 3.52803 10.0149 3.83195C10.0244 3.84145 10.0339 3.85095 10.0434 3.86045C10.6228 4.40181 11.1736 4.96216 11.753 5.56051C12.0474 5.86443 12.3513 6.16835 12.6552 6.48177L15.2481 9.07461C16.2548 10.0813 16.2548 11.0121 15.2481 12.0189C14.9726 12.2943 14.7067 12.5697 14.4313 12.8356C13.6335 13.6524 12.8737 14.4122 12.0474 15.153C12.0284 15.172 12.0094 15.1815 11.9999 15.2005C11.1831 16.0173 11.3351 16.8151 11.506 17.3565C11.5155 17.385 11.525 17.4135 11.5345 17.442C12.2089 19.0755 13.1586 20.6141 14.6022 22.4472L14.6117 22.4567C17.2331 25.6858 19.9969 28.2027 23.0456 30.1307C23.435 30.3776 23.8339 30.5771 24.2138 30.767C24.5557 30.938 24.8786 31.0994 25.154 31.2704C25.192 31.2894 25.23 31.3179 25.268 31.3369C25.5909 31.4983 25.8948 31.5743 26.2083 31.5743C26.9966 31.5743 27.4904 31.0805 27.6519 30.919L30.9 27.6708C31.223 27.3479 31.7358 26.9585 32.3342 26.9585C32.923 26.9585 33.4074 27.3289 33.7018 27.6518C33.7113 27.6613 33.7113 27.6613 33.7208 27.6708L38.954 32.904C39.9322 33.8727 39.9322 34.87 38.9635 35.8767Z" fill="white"/>
</svg>
